<svg width="40" height="40" viewBox="0 0 40 40" fill="none" xmlns="http://www.w3.org/2000/svg">
<mask id="mask0_72_40285" style="mask-type:alpha" maskUnits="userSpaceOnUse" x="0" y="0" width="40" height="40">
<rect width="40" height="40" fill="#D9D9D9"/>
</mask>
<g mask="url(#mask0_72_40285)">
<path d="M13.3334 19.1665V16.6665H26.6667V19.1665H13.3334ZM15.0001 24.1665V21.6665H25.0001V24.1665H15.0001ZM5.00008 33.3332C4.08341 33.3332 3.29869 33.0068 2.64591 32.354C1.99314 31.7012 1.66675 30.9165 1.66675 29.9998V9.99984C1.66675 9.08317 1.99314 8.29845 2.64591 7.64567C3.29869 6.99289 4.08341 6.6665 5.00008 6.6665H35.0001C35.9167 6.6665 36.7015 6.99289 37.3543 7.64567C38.007 8.29845 38.3334 9.08317 38.3334 9.99984V29.9998C38.3334 30.9165 38.007 31.7012 37.3543 32.354C36.7015 33.0068 35.9167 33.3332 35.0001 33.3332H5.00008ZM6.66675 9.99984H5.00008V29.9998H6.66675V9.99984ZM10.0001 29.9998H30.0001V9.99984H10.0001V29.9998ZM33.3334 9.99984V29.9998H35.0001V9.99984H33.3334Z" fill="#95C123"/>
</g>
</svg>
