<svg xmlns="http://www.w3.org/2000/svg" width="12" height="12" fill="currentColor" viewBox="0 0 12 12">
  <path d="M9.078 5.119 5.562 1.498a.839.839 0 0 1-.25-.623.891.891 0 0 1 .264-.621A.875.875 0 0 1 6.18 0a.79.79 0 0 1 .604.258l4.973 5.121a.818.818 0 0 1 .185.29.957.957 0 0 1 0 .665.818.818 0 0 1-.185.29L6.78 11.749a.797.797 0 0 1-.595.251.844.844 0 0 1-.609-.25.873.873 0 0 1-.257-.63c0-.243.086-.452.257-.63l3.502-3.606H.857a.816.816 0 0 1-.609-.255A.866.866 0 0 1 0 6a.87.87 0 0 1 .248-.627.816.816 0 0 1 .609-.255h8.221Z"/>
</svg>
