<svg width="20" height="20" viewBox="0 0 20 20" fill="none" xmlns="http://www.w3.org/2000/svg">
<path d="M4.25 13C3.96667 13 3.72917 12.9042 3.5375 12.7125C3.34583 12.5208 3.25 12.2833 3.25 12C3.25 11.7167 3.34583 11.4792 3.5375 11.2875C3.72917 11.0958 3.96667 11 4.25 11C4.53333 11 4.77083 11.0958 4.9625 11.2875C5.15417 11.4792 5.25 11.7167 5.25 12C5.25 12.2833 5.15417 12.5208 4.9625 12.7125C4.77083 12.9042 4.53333 13 4.25 13ZM4.25 17C3.96667 17 3.72917 16.9042 3.5375 16.7125C3.34583 16.5208 3.25 16.2833 3.25 16C3.25 15.7167 3.34583 15.4792 3.5375 15.2875C3.72917 15.0958 3.96667 15 4.25 15C4.53333 15 4.77083 15.0958 4.9625 15.2875C5.15417 15.4792 5.25 15.7167 5.25 16C5.25 16.2833 5.15417 16.5208 4.9625 16.7125C4.77083 16.9042 4.53333 17 4.25 17ZM4.25 9C3.96667 9 3.72917 8.90417 3.5375 8.7125C3.34583 8.52083 3.25 8.28333 3.25 8C3.25 7.71667 3.34583 7.47917 3.5375 7.2875C3.72917 7.09583 3.96667 7 4.25 7C4.53333 7 4.77083 7.09583 4.9625 7.2875C5.15417 7.47917 5.25 7.71667 5.25 8C5.25 8.28333 5.15417 8.52083 4.9625 8.7125C4.77083 8.90417 4.53333 9 4.25 9ZM1.25 8.5C1.11667 8.5 1 8.45 0.9 8.35C0.8 8.25 0.75 8.13333 0.75 8C0.75 7.86667 0.8 7.75 0.9 7.65C1 7.55 1.11667 7.5 1.25 7.5C1.38333 7.5 1.5 7.55 1.6 7.65C1.7 7.75 1.75 7.86667 1.75 8C1.75 8.13333 1.7 8.25 1.6 8.35C1.5 8.45 1.38333 8.5 1.25 8.5ZM4.25 5C3.96667 5 3.72917 4.90417 3.5375 4.7125C3.34583 4.52083 3.25 4.28333 3.25 4C3.25 3.71667 3.34583 3.47917 3.5375 3.2875C3.72917 3.09583 3.96667 3 4.25 3C4.53333 3 4.77083 3.09583 4.9625 3.2875C5.15417 3.47917 5.25 3.71667 5.25 4C5.25 4.28333 5.15417 4.52083 4.9625 4.7125C4.77083 4.90417 4.53333 5 4.25 5ZM1.25 12.5C1.11667 12.5 1 12.45 0.9 12.35C0.8 12.25 0.75 12.1333 0.75 12C0.75 11.8667 0.8 11.75 0.9 11.65C1 11.55 1.11667 11.5 1.25 11.5C1.38333 11.5 1.5 11.55 1.6 11.65C1.7 11.75 1.75 11.8667 1.75 12C1.75 12.1333 1.7 12.25 1.6 12.35C1.5 12.45 1.38333 12.5 1.25 12.5ZM8.25 19.5C8.11667 19.5 8 19.45 7.9 19.35C7.8 19.25 7.75 19.1333 7.75 19C7.75 18.8667 7.8 18.75 7.9 18.65C8 18.55 8.11667 18.5 8.25 18.5C8.38333 18.5 8.5 18.55 8.6 18.65C8.7 18.75 8.75 18.8667 8.75 19C8.75 19.1333 8.7 19.25 8.6 19.35C8.5 19.45 8.38333 19.5 8.25 19.5ZM8.25 1.5C8.11667 1.5 8 1.45 7.9 1.35C7.8 1.25 7.75 1.13333 7.75 1C7.75 0.866667 7.8 0.75 7.9 0.65C8 0.55 8.11667 0.5 8.25 0.5C8.38333 0.5 8.5 0.55 8.6 0.65C8.7 0.75 8.75 0.866667 8.75 1C8.75 1.13333 8.7 1.25 8.6 1.35C8.5 1.45 8.38333 1.5 8.25 1.5ZM8.25 5C7.96667 5 7.72917 4.90417 7.5375 4.7125C7.34583 4.52083 7.25 4.28333 7.25 4C7.25 3.71667 7.34583 3.47917 7.5375 3.2875C7.72917 3.09583 7.96667 3 8.25 3C8.53333 3 8.77083 3.09583 8.9625 3.2875C9.15417 3.47917 9.25 3.71667 9.25 4C9.25 4.28333 9.15417 4.52083 8.9625 4.7125C8.77083 4.90417 8.53333 5 8.25 5ZM8.25 13.5C7.83333 13.5 7.47917 13.3542 7.1875 13.0625C6.89583 12.7708 6.75 12.4167 6.75 12C6.75 11.5833 6.89583 11.2292 7.1875 10.9375C7.47917 10.6458 7.83333 10.5 8.25 10.5C8.66667 10.5 9.02083 10.6458 9.3125 10.9375C9.60417 11.2292 9.75 11.5833 9.75 12C9.75 12.4167 9.60417 12.7708 9.3125 13.0625C9.02083 13.3542 8.66667 13.5 8.25 13.5ZM8.25 9.5C7.83333 9.5 7.47917 9.35417 7.1875 9.0625C6.89583 8.77083 6.75 8.41667 6.75 8C6.75 7.58333 6.89583 7.22917 7.1875 6.9375C7.47917 6.64583 7.83333 6.5 8.25 6.5C8.66667 6.5 9.02083 6.64583 9.3125 6.9375C9.60417 7.22917 9.75 7.58333 9.75 8C9.75 8.41667 9.60417 8.77083 9.3125 9.0625C9.02083 9.35417 8.66667 9.5 8.25 9.5ZM8.25 17C7.96667 17 7.72917 16.9042 7.5375 16.7125C7.34583 16.5208 7.25 16.2833 7.25 16C7.25 15.7167 7.34583 15.4792 7.5375 15.2875C7.72917 15.0958 7.96667 15 8.25 15C8.53333 15 8.77083 15.0958 8.9625 15.2875C9.15417 15.4792 9.25 15.7167 9.25 16C9.25 16.2833 9.15417 16.5208 8.9625 16.7125C8.77083 16.9042 8.53333 17 8.25 17ZM10.25 19V17C12.1833 17 13.8333 16.3167 15.2 14.95C16.5667 13.5833 17.25 11.9333 17.25 10C17.25 8.06667 16.5667 6.41667 15.2 5.05C13.8333 3.68333 12.1833 3 10.25 3V1C11.4833 1 12.6458 1.2375 13.7375 1.7125C14.8292 2.1875 15.7833 2.83333 16.6 3.65C17.4167 4.46667 18.0625 5.42083 18.5375 6.5125C19.0125 7.60417 19.25 8.76667 19.25 10C19.25 11.2333 19.0125 12.3958 18.5375 13.4875C18.0625 14.5792 17.4167 15.5333 16.6 16.35C15.7833 17.1667 14.8292 17.8125 13.7375 18.2875C12.6458 18.7625 11.4833 19 10.25 19Z" fill="white"/>
</svg>
