<svg width="40" height="40" viewBox="0 0 40 40" fill="none" xmlns="http://www.w3.org/2000/svg">
<mask id="mask0_72_40288" style="mask-type:alpha" maskUnits="userSpaceOnUse" x="0" y="0" width="40" height="40">
<rect width="40" height="40" fill="#D9D9D9"/>
</mask>
<g mask="url(#mask0_72_40288)">
<path d="M6.66659 35C5.74992 35 4.9652 34.6736 4.31242 34.0208C3.65964 33.3681 3.33325 32.5833 3.33325 31.6667V8.33333C3.33325 7.41667 3.65964 6.63194 4.31242 5.97917C4.9652 5.32639 5.74992 5 6.66659 5H29.9999C30.9166 5 31.7013 5.32639 32.3541 5.97917C33.0069 6.63194 33.3333 7.41667 33.3333 8.33333V11.6667H36.6666V15H33.3333V18.3333H36.6666V21.6667H33.3333V25H36.6666V28.3333H33.3333V31.6667C33.3333 32.5833 33.0069 33.3681 32.3541 34.0208C31.7013 34.6736 30.9166 35 29.9999 35H6.66659ZM6.66659 31.6667H29.9999V8.33333H6.66659V31.6667ZM9.99992 28.3333H18.3333V21.6667H9.99992V28.3333ZM19.9999 16.6667H26.6666V11.6667H19.9999V16.6667ZM9.99992 20H18.3333V11.6667H9.99992V20ZM19.9999 28.3333H26.6666V18.3333H19.9999V28.3333Z" fill="#95C123"/>
</g>
</svg>
