<svg width="40" height="40" viewBox="0 0 40 40" fill="none" xmlns="http://www.w3.org/2000/svg">
<mask id="mask0_72_40446" style="mask-type:alpha" maskUnits="userSpaceOnUse" x="0" y="0" width="40" height="40">
<rect width="40" height="40" fill="#D9D9D9"/>
</mask>
<g mask="url(#mask0_72_40446)">
<path d="M20.0001 18.2781C21.9445 18.2781 23.5973 17.5975 24.9584 16.2364C26.3195 14.8753 27.0001 13.2225 27.0001 11.2781V6.11141H13.0001V11.2781C13.0001 13.2225 13.6806 14.8753 15.0417 16.2364C16.4029 17.5975 18.0556 18.2781 20.0001 18.2781ZM8.0555 36.6668C7.66216 36.6668 7.3323 36.5332 7.06591 36.266C6.7998 35.9991 6.66675 35.6681 6.66675 35.2731C6.66675 34.8781 6.7998 34.5486 7.06591 34.2847C7.3323 34.0209 7.66216 33.8889 8.0555 33.8889H10.2222V28.6948C10.2222 26.815 10.7245 25.0904 11.7292 23.521C12.734 21.9516 14.0836 20.7779 15.778 20.0002C14.0836 19.2038 12.734 18.0209 11.7292 16.4514C10.7245 14.882 10.2222 13.1575 10.2222 11.2781V6.11141H8.0555C7.66216 6.11141 7.3323 5.9778 7.06591 5.71058C6.7998 5.44336 6.66675 5.11238 6.66675 4.71766C6.66675 4.32266 6.7998 3.99322 7.06591 3.72933C7.3323 3.46544 7.66216 3.3335 8.0555 3.3335H31.9447C32.338 3.3335 32.6679 3.46711 32.9342 3.73433C33.2004 4.00127 33.3334 4.33225 33.3334 4.72725C33.3334 5.12225 33.2004 5.45169 32.9342 5.71558C32.6679 5.97947 32.338 6.11141 31.9447 6.11141H29.778V11.2781C29.778 13.1575 29.2756 14.882 28.2709 16.4514C27.2662 18.0209 25.9166 19.2038 24.2222 20.0002C25.9166 20.7779 27.2662 21.9516 28.2709 23.521C29.2756 25.0904 29.778 26.815 29.778 28.6948V33.8889H31.9447C32.338 33.8889 32.6679 34.0225 32.9342 34.2898C33.2004 34.557 33.3334 34.8879 33.3334 35.2827C33.3334 35.6777 33.2004 36.0071 32.9342 36.271C32.6679 36.5349 32.338 36.6668 31.9447 36.6668H8.0555Z" fill="#95C123"/>
</g>
</svg>
