<svg style="display: none;" aria-hidden="true" xmlns="http://www.w3.org/2000/svg" xmlns:xlink="http://www.w3.org/1999/xlink"><symbol fill="currentColor" viewBox="0 0 10 6" id="svg-arrow"><path d="M.47.47a.75.75 0 0 0-.052 1.004l.052.056 4 4a.75.75 0 0 0 1.06 0l4-4A.75.75 0 1 0 8.47.47L5 3.94 1.53.47 1.474.418A.75.75 0 0 0 .47.47Z"/></symbol><symbol fill="currentColor" viewBox="0 0 22 20" id="svg-facebook"><path d="M21.407 10.058c0-5.311-4.598-9.617-10.268-9.617C5.47.44.872 4.747.872 10.058c0 4.8 3.754 8.778 8.663 9.5v-6.72H6.927v-2.78h2.608V7.939c0-2.41 1.533-3.742 3.878-3.742 1.124 0 2.299.188 2.299.188v2.367h-1.296c-1.274 0-1.673.741-1.673 1.503v1.803h2.847l-.454 2.78h-2.393v6.721c4.91-.722 8.664-4.7 8.664-9.501Z" clip-rule="evenodd"/></symbol><symbol fill="currentColor" viewBox="0 0 20 20" id="svg-instagram"><path d="M14.076 2.032A4.237 4.237 0 0 1 17 3.202a3.921 3.921 0 0 1 1.216 2.814v7.968A3.921 3.921 0 0 1 17 16.797a4.236 4.236 0 0 1-2.924 1.17h-8.28a4.236 4.236 0 0 1-2.924-1.17 3.922 3.922 0 0 1-1.216-2.813V6.016a3.922 3.922 0 0 1 1.216-2.813 4.236 4.236 0 0 1 2.924-1.17h8.28Zm0-1.593h-8.28C2.608.439 0 2.949 0 6.016v7.968c0 3.067 2.608 5.577 5.796 5.577h8.28c3.188 0 5.796-2.51 5.796-5.577V6.016c0-3.067-2.608-5.577-5.796-5.577Z"/><path d="M15.318 6.016c-.246 0-.486-.07-.69-.201a1.207 1.207 0 0 1-.457-.536 1.154 1.154 0 0 1-.071-.69c.048-.233.166-.446.34-.613.173-.167.395-.28.636-.327.24-.046.49-.022.717.068.227.09.421.244.558.44a1.163 1.163 0 0 1-.154 1.51 1.252 1.252 0 0 1-.879.35Zm-5.382.797c.655 0 1.296.187 1.84.537.545.35.97.848 1.22 1.43a3.09 3.09 0 0 1 .189 1.842 3.152 3.152 0 0 1-.907 1.632 3.354 3.354 0 0 1-1.696.872 3.432 3.432 0 0 1-1.913-.181 3.288 3.288 0 0 1-1.487-1.174A3.103 3.103 0 0 1 6.624 10c0-.846.35-1.656.971-2.254a3.383 3.383 0 0 1 2.341-.934Zm0-1.593c-.983 0-1.943.28-2.76.805a4.825 4.825 0 0 0-1.83 2.146 4.613 4.613 0 0 0-.283 2.762 4.726 4.726 0 0 0 1.36 2.447 5.031 5.031 0 0 0 2.544 1.309 5.15 5.15 0 0 0 2.87-.272 4.931 4.931 0 0 0 2.23-1.76A4.656 4.656 0 0 0 14.904 10a4.69 4.69 0 0 0-1.455-3.38 5.069 5.069 0 0 0-3.513-1.4Z"/></symbol><symbol fill="currentColor" viewBox="0 0 20 20" id="svg-linkdin"><path d="M18.441.29H2.235C1.349.29.575.929.575 1.804v16.242c0 .88.774 1.664 1.66 1.664h16.201c.89 0 1.558-.79 1.558-1.664V1.803c.005-.875-.668-1.512-1.553-1.512ZM6.595 16.478H3.813v-8.65h2.782v8.65ZM5.3 6.512h-.02c-.89 0-1.466-.662-1.466-1.492 0-.845.591-1.492 1.501-1.492.91 0 1.468.643 1.488 1.492 0 .83-.577 1.492-1.503 1.492Zm11.462 9.965H13.98v-4.73c0-1.132-.405-1.907-1.411-1.907-.77 0-1.224.52-1.427 1.027-.076.182-.096.43-.096.683v4.927H8.264v-8.65h2.782v1.204c.405-.576 1.037-1.406 2.509-1.406 1.826 0 3.207 1.204 3.207 3.799v5.053Z"/></symbol><symbol fill="currentColor" viewBox="0 0 20 16" id="svg-twitter"><path d="M19.576 2.154a8.063 8.063 0 0 1-2.258.61 3.892 3.892 0 0 0 1.73-2.139 7.901 7.901 0 0 1-2.498.938A3.96 3.96 0 0 0 13.678.338c-2.173 0-3.932 1.732-3.932 3.867a3.69 3.69 0 0 0 .101.882A11.217 11.217 0 0 1 1.74 1.044a3.817 3.817 0 0 0-.535 1.944c0 1.34.7 2.526 1.758 3.22a3.896 3.896 0 0 1-1.789-.483v.048c0 1.876 1.358 3.436 3.155 3.791-.338.09-.686.136-1.036.136-.248 0-.495-.024-.739-.072.5 1.537 1.954 2.654 3.676 2.686a7.974 7.974 0 0 1-5.823 1.6 11.136 11.136 0 0 0 6.02 1.748c7.243 0 11.2-5.894 11.2-11.006 0-.168-.005-.336-.013-.5a7.923 7.923 0 0 0 1.962-2.002Z"/></symbol><symbol fill="currentColor" viewBox="0 0 26 20" id="svg-youtube"><path d="M25.457 3.295c-.3-1.199-1.18-2.142-2.3-2.463C21.132.25 13 .25 13 .25S4.87.25 2.842.832c-1.119.32-2 1.264-2.299 2.463C0 5.467 0 10 0 10s0 4.533.543 6.705c.3 1.199 1.18 2.143 2.299 2.463C4.87 19.75 13 19.75 13 19.75s8.13 0 10.158-.582c1.119-.32 2-1.264 2.299-2.463C26 14.533 26 10 26 10s0-4.533-.543-6.705ZM10.562 14.663V6.185l6.5 4.24-6.5 4.238Z"/></symbol></svg>