<svg width="60" height="60" viewBox="0 0 60 60" fill="none" xmlns="http://www.w3.org/2000/svg">
<mask id="mask0_72_40443" style="mask-type:alpha" maskUnits="userSpaceOnUse" x="0" y="0" width="60" height="60">
<rect width="59.6025" height="59.6025" fill="#D9D9D9"/>
</mask>
<g mask="url(#mask0_72_40443)">
<path d="M29.8014 52.9593C29.2219 52.9593 28.6424 52.8558 28.0629 52.6488C27.4835 52.4419 26.9661 52.1314 26.5108 51.7175C23.8204 49.2341 21.4404 46.8127 19.3709 44.4535C17.3014 42.0942 15.5733 39.8074 14.1867 37.593C12.8001 35.3786 11.7447 33.247 11.0203 31.1981C10.296 29.1493 9.93384 27.1936 9.93384 25.331C9.93384 19.1224 11.9309 14.1762 15.9251 10.4924C19.9193 6.80868 24.5447 4.9668 29.8014 4.9668C35.058 4.9668 39.6834 6.80868 43.6776 10.4924C47.6718 14.1762 49.6689 19.1224 49.6689 25.331C49.6689 27.1936 49.3067 29.1493 48.5824 31.1981C47.858 33.247 46.8026 35.3786 45.416 37.593C44.0294 39.8074 42.3013 42.0942 40.2318 44.4535C38.1623 46.8127 35.7823 49.2341 33.0919 51.7175C32.6366 52.1314 32.1192 52.4419 31.5398 52.6488C30.9603 52.8558 30.3808 52.9593 29.8014 52.9593ZM29.8014 29.8012C31.1672 29.8012 32.3365 29.3148 33.3092 28.3422C34.2819 27.3695 34.7682 26.2002 34.7682 24.8343C34.7682 23.4684 34.2819 22.2991 33.3092 21.3265C32.3365 20.3538 31.1672 19.8674 29.8014 19.8674C28.4355 19.8674 27.2662 20.3538 26.2935 21.3265C25.3208 22.2991 24.8345 23.4684 24.8345 24.8343C24.8345 26.2002 25.3208 27.3695 26.2935 28.3422C27.2662 29.3148 28.4355 29.8012 29.8014 29.8012Z" fill="#95C123"/>
</g>
</svg>
