<svg width="19" height="20" viewBox="0 0 19 20" fill="none" xmlns="http://www.w3.org/2000/svg">
<path d="M2.51929 20V0.225564V0H12.2253L16.9637 4.66165V20H2.51929Z" fill="#EBEBEB"/>
<rect x="0.852631" y="7.22223" width="17.7778" height="8.33333" rx="1.11111" fill="#FF0000"/>
<path d="M4.78153 13.7778V9.88888H6.53708C6.77042 9.88888 6.97967 9.94259 7.16486 10.05C7.35005 10.1574 7.49449 10.3093 7.59819 10.5055C7.7019 10.7018 7.75375 10.9278 7.75375 11.1833C7.75375 11.4389 7.7019 11.6648 7.59819 11.8611C7.49449 12.0574 7.35005 12.2111 7.16486 12.3222C6.97967 12.4296 6.77042 12.4833 6.53708 12.4833H5.49819V13.7778H4.78153ZM6.5093 11.7944C6.6093 11.7944 6.69819 11.7704 6.77597 11.7222C6.85745 11.6704 6.92227 11.5981 6.97042 11.5055C7.01856 11.413 7.04264 11.3055 7.04264 11.1833C7.04264 11.0648 7.01856 10.9593 6.97042 10.8667C6.92227 10.7741 6.85745 10.7037 6.77597 10.6555C6.69819 10.6037 6.6093 10.5778 6.5093 10.5778H5.49819V11.7944H6.5093ZM8.39481 13.7778V9.88888H9.7837C10.1355 9.88888 10.4541 9.97407 10.7393 10.1444C11.0281 10.3111 11.2541 10.5426 11.417 10.8389C11.58 11.1352 11.6615 11.4667 11.6615 11.8333C11.6615 12.2 11.58 12.5315 11.417 12.8278C11.2541 13.1241 11.0281 13.3574 10.7393 13.5278C10.4541 13.6944 10.1355 13.7778 9.7837 13.7778H8.39481ZM9.7837 13.0889C10.0022 13.0889 10.1985 13.037 10.3726 12.9333C10.5504 12.8259 10.6893 12.6778 10.7893 12.4889C10.893 12.2963 10.9448 12.0778 10.9448 11.8333C10.9448 11.5889 10.893 11.3722 10.7893 11.1833C10.6893 10.9907 10.5504 10.8426 10.3726 10.7389C10.1985 10.6315 10.0022 10.5778 9.7837 10.5778H9.11147V13.0889H9.7837ZM12.3173 13.7778V9.88888H14.8784V10.5444H13.034V11.5278H14.7507V12.1611H13.034V13.7778H12.3173Z" fill="white"/>
</svg>
