<svg width="22" height="16" viewBox="0 0 22 16" fill="none" xmlns="http://www.w3.org/2000/svg">
<path fill-rule="evenodd" clip-rule="evenodd" d="M21.3959 2.59936C21.1446 1.63391 20.4041 0.873663 19.4638 0.615645C17.7598 0.146729 10.9263 0.146729 10.9263 0.146729C10.9263 0.146729 4.09276 0.146729 2.38864 0.615645C1.44835 0.873663 0.70785 1.63391 0.456545 2.59936C0 4.34912 0 8 0 8C0 8 0 11.6508 0.456545 13.4006C0.70785 14.3661 1.44835 15.1263 2.38864 15.3845C4.09276 15.8533 10.9263 15.8533 10.9263 15.8533C10.9263 15.8533 17.7598 15.8533 19.4638 15.3845C20.4041 15.1263 21.1446 14.3661 21.3959 13.4006C21.8526 11.6508 21.8526 8 21.8526 8C21.8526 8 21.8526 4.34912 21.3959 2.59936Z" fill="#FF0000"/>
<path fill-rule="evenodd" clip-rule="evenodd" d="M8.87752 11.7559V4.92694L14.3407 8.34154L8.87752 11.7559Z" fill="white"/>
</svg>
